<svg xmlns="http://www.w3.org/2000/svg" xml:space="preserve" width="256" height="256"><g fill="#1d1d1b" stroke-miterlimit="10" stroke-width="0"><path d="M213.7 222.7H42A40.7 40.7 0 0 1 1.4 182V73.7A40.7 40.7 0 0 1 42 33h171.7a40.7 40.7 0 0 1 40.6 40.6V182a40.7 40.7 0 0 1-40.6 40.7zM42 44.9a28.8 28.8 0 0 0-28.7 28.8V182A28.8 28.8 0 0 0 42 210.8h171.7a28.8 28.8 0 0 0 28.7-28.8V73.7a28.8 28.8 0 0 0-28.7-28.8H42z"/><path d="m32.4 74.2 91.1 88.8c5.7 5.5 14.4-3.2 8.7-8.7l-91-88.7c-5.7-5.6-14.4 3.1-8.8 8.6z"/><path d="m132.2 163 91-88.8c5.7-5.5-3-14.2-8.6-8.6l-91 88.7c-5.7 5.5 3 14.2 8.6 8.7z"/><path d="m223 184-60.7-57.6c-5.7-5.4-14.4 3.3-8.6 8.7l60.6 57.5c5.7 5.4 14.4-3.2 8.6-8.7zM42 192.6l60.6-57.5c5.7-5.4-3-14-8.7-8.7L33.3 184c-5.7 5.5 3 14.1 8.7 8.7z"/></g></svg>