<svg xmlns="http://www.w3.org/2000/svg" width="360" height="362" fill="none"><path fill="#25D366" fill-rule="evenodd" d="M307.5 52.6A178 178 0 0 0 180.8 0 179.5 179.5 0 0 0 25.4 268.8L0 361.8l95-25A179.5 179.5 0 0 0 307.5 52.6ZM180.8 328.4h-.1c-26.7 0-53-7.2-75.8-20.8l-5.5-3.2L43 319l15-55-3.5-5.6A149.2 149.2 0 0 1 286.1 74a149.2 149.2 0 0 1-105.4 254.4Zm81.7-111.6a741 741 0 0 0-30.6-14.6c-4.1-1.5-7.1-2.2-10.1 2.3-3 4.4-11.6 14.5-14.2 17.5-2.6 3-5.2 3.4-9.7 1.1-4.5-2.2-18.9-7-36-22.2a135 135 0 0 1-25-31c-2.5-4.5-.2-7 2-9.2 2-2 4.5-5.2 6.8-7.8 2.2-2.6 3-4.5 4.4-7.5 1.5-3 .8-5.6-.3-7.8-1.2-2.3-10.1-24.3-13.8-33.3-3.7-8.7-7.4-7.5-10.1-7.7l-8.6-.1c-3 0-7.8 1-12 5.6-4 4.5-15.6 15.3-15.6 37.3 0 22 16 43.4 18.3 46.4 2.2 3 31.5 48.2 76.5 67.6 10.7 4.6 19 7.4 25.5 9.4 10.7 3.5 20.5 3 28.2 1.8 8.6-1.3 26.5-10.8 30.2-21.3 3.8-10.4 3.8-19.4 2.7-21.3-1.2-1.8-4.2-3-8.6-5.2Z" clip-rule="evenodd"/></svg>